<svg xmlns="http://www.w3.org/2000/svg" width="26.232" height="27.521" viewBox="0 0 26.232 27.521">
  <g id="Group_634" data-name="Group 634" transform="translate(-197.838 -123.511)">
    <path id="ic_notifications_24px" d="M14.162,27.271A2.548,2.548,0,0,0,16.7,24.73H11.622A2.54,2.54,0,0,0,14.162,27.271Zm7.622-7.622V13.3c0-3.9-2.083-7.165-5.716-8.028V4.405a1.905,1.905,0,1,0-3.811,0v.864C8.611,6.133,6.541,9.385,6.541,13.3v6.352L4,22.19v1.27H24.325V22.19Z" transform="translate(193.838 123.761)" fill="#720960"/>
    <g id="Path_296" data-name="Path 296" transform="translate(208 123.511)" fill="red">
      <path d="M 8.034999847412109 15.06999969482422 C 4.155889987945557 15.06999969482422 0.9999998211860657 11.91411018371582 0.9999998211860657 8.034999847412109 C 0.9999998211860657 4.155889987945557 4.155889987945557 0.9999998211860657 8.034999847412109 0.9999998211860657 C 11.91411018371582 0.9999998211860657 15.06999969482422 4.155889987945557 15.06999969482422 8.034999847412109 C 15.06999969482422 11.91411018371582 11.91411018371582 15.06999969482422 8.034999847412109 15.06999969482422 Z" stroke="none"/>
      <path d="M 8.034999847412109 2 C 4.707289695739746 2 2 4.707289695739746 2 8.034999847412109 C 2 11.36270999908447 4.707289695739746 14.06999969482422 8.034999847412109 14.06999969482422 C 11.36270999908447 14.06999969482422 14.06999969482422 11.36270999908447 14.06999969482422 8.034999847412109 C 14.06999969482422 4.707289695739746 11.36270999908447 2 8.034999847412109 2 M 8.034999847412109 0 C 12.4726095199585 0 16.06999969482422 3.597390174865723 16.06999969482422 8.034999847412109 C 16.06999969482422 12.4726095199585 12.4726095199585 16.06999969482422 8.034999847412109 16.06999969482422 C 3.597390174865723 16.06999969482422 0 12.4726095199585 0 8.034999847412109 C 0 3.597390174865723 3.597390174865723 0 8.034999847412109 0 Z" stroke="none" fill="#fff"/>
    </g>
  </g>
</svg>
